<?xml version="1.0" standalone="no"?><!DOCTYPE svg PUBLIC "-//W3C//DTD SVG 1.1//EN" "http://www.w3.org/Graphics/SVG/1.1/DTD/svg11.dtd"><svg t="1587210355674" class="icon" viewBox="0 0 1027 1024" version="1.1" xmlns="http://www.w3.org/2000/svg" p-id="762" xmlns:xlink="http://www.w3.org/1999/xlink" width="200.5859375" height="200"><defs><style type="text/css"></style></defs><path d="M955.733333 556.373333c-3.413333-218.453333-102.4-334.506667-290.133333-334.506666-102.4 0-177.493333 17.066667-221.866667 30.72-3.413333 37.546667-17.066667 88.746667-78.506666 119.466666h-6.826667c-6.826667 0-13.653333-3.413333-17.066667-10.24-3.413333-6.826667 0-17.066667 6.826667-23.893333 37.546667-17.066667 51.2-47.786667 58.026667-75.093333 0-6.826667 3.413333-13.653333 3.413333-20.48V238.933333v-17.066666c0-68.266667-37.546667-102.4-112.64-102.4-27.306667 0-54.613333 3.413333-75.093333 20.48-3.413333-3.413333-6.826667-3.413333-6.826667-3.413334H153.6C105.813333 136.533333 68.266667 187.733333 68.266667 221.866667c0 27.306667 13.653333 40.96 27.306666 51.2l3.413334 3.413333c-13.653333 13.653333-20.48 27.306667-27.306667 34.133333L6.826667 358.4c-6.826667 6.826667-6.826667 17.066667-6.826667 23.893333 40.96 109.226667 54.613333 112.64 64.853333 112.64 13.653333 3.413333 78.506667 0 112.64 0 17.066667 27.306667 47.786667 40.96 78.506667 51.2 30.72 13.653333 51.2 20.48 51.2 34.133334s-27.306667 30.72-47.786667 40.96c-27.306667 17.066667-54.613333 30.72-58.026666 54.613333 0 6.826667 0 20.48 10.24 34.133333 17.066667 20.48 34.133333 27.306667 54.613333 27.306667 20.48 0 44.373333-10.24 68.266667-17.066667 27.306667-10.24 51.2-20.48 78.506666-20.48 10.24 0 17.066667 0 27.306667-3.413333h3.413333c6.826667-3.413333 17.066667-3.413333 23.893334-10.24 23.893333-10.24 47.786667-30.72 64.853333-54.613333 20.48-30.72 51.2-95.573333 13.653333-194.56-3.413333-10.24 0-17.066667 10.24-20.48 10.24-3.413333 17.066667 0 20.48 10.24 44.373333 112.64 6.826667 187.733333-17.066666 225.28-20.48 27.306667-44.373333 51.2-71.68 64.853333 37.546667 34.133333 88.746667 13.653333 139.946666-17.066667 6.826667 3.413333 13.653333 0 23.893334 0 64.853333 3.413333 194.56 6.826667 290.133333-112.64 40.96 44.373333 51.2 75.093333 51.2 126.293334s-112.64 153.6-242.346667 153.6c-68.266667 0-129.706667-17.066667-187.733333-34.133334-58.026667-17.066667-109.226667-34.133333-167.253333-34.133333-122.88 0-180.906667 71.68-184.32 75.093333-6.826667 6.826667-3.413333 17.066667 3.413333 23.893334 3.413333 3.413333 6.826667 3.413333 10.24 3.413333 3.413333 0 10.24-3.413333 13.653333-6.826667 0 0 51.2-61.44 157.013334-61.44 51.2 0 102.4 13.653333 157.013333 30.72 61.44 17.066667 122.88 37.546667 197.973333 37.546667 146.773333 0 276.48-116.053333 276.48-187.733333-3.413333-64.853333-20.48-102.4-71.68-157.013334zM146.773333 372.053333c-10.24 0-20.48-10.24-20.48-20.48s10.24-20.48 20.48-20.48 20.48 10.24 20.48 20.48-10.24 20.48-20.48 20.48z" fill="#8A2BE2" p-id="763"></path></svg>